#!OML:ASF F:\VICON\USERDATA\INSTALL\rory3\rory3.ASF
:FULLY-SPECIFIED
:DEGREES
2536
root -1.59053 14.4111 1.94654 -361.018 13.4057 368.849
lowerback 18.1028 5.76464 -6.03131
upperback -0.299501 6.05167 -3.00832
thorax -10.7906 3.089 -1.56316
lowerneck -10.8333 -8.15942 -5.83508
upperneck 18.6373 -11.7223 7.82606
head 8.38786 -5.22381 2.28089
rclavicle -2.74059e-014 -1.88845e-015
rhumerus 40.7666 47.8361 -52.5986
rradius 85.0829
rwrist -59.5091
rhand 2.65521 12.3179
rfingers 7.12502
rthumb 28.131 -15.5919
lclavicle -2.74059e-014 -1.88845e-015
lhumerus -19.7368 37.4646 43.3743
lradius 95.8284
lwrist 60.3128
lhand -0.0525812 17.3832
lfingers 7.12502
lthumb 25.54 45.6912
rfemur -36.3442 -22.722 16.1757
rtibia 71.2948
rfoot -34.1007 -5.41637
rtoes 27.0513
lfemur -3.80992 -7.9546 -1.21614
ltibia 42.096
lfoot -0.643562 7.02645
ltoes -34.0128
2537
root -1.64577 14.4085 1.97331 -360.933 13.0783 368.873
lowerback 17.9684 5.60017 -6.09241
upperback -0.346652 5.8363 -2.94582
thorax -10.7741 2.99372 -1.39011
lowerneck -10.5231 -8.00217 -5.83255
upperneck 18.2475 -11.478 7.79069
head 8.18015 -5.13189 2.3138
rclavicle 4.07167e-014 3.926e-015
rhumerus 40.1294 47.5794 -53.3891
rradius 85.6295
rwrist -59.6387
rhand 1.61069 12.4462
rfingers 7.12502
rthumb 27.1322 -15.6237
lclavicle 4.07167e-014 3.926e-015
lhumerus -19.4325 37.9363 43.5644
lradius 96.526
lwrist 60.4604
lhand 0.514905 17.8054
lfingers 7.12502
lthumb 26.0835 46.0344
rfemur -36.3364 -22.3241 16.5649
rtibia 71.1384
rfoot -34.2604 -5.90282
rtoes 26.0917
lfemur -4.15556 -7.93664 -1.00624
ltibia 42.5247
lfoot -1.80711 6.70611
ltoes -39.5642
2538
root -1.71414 14.4214 1.99128 -361.001 12.7499 368.805
lowerback 18.2352 5.59825 -5.89461
upperback -0.445902 5.84461 -2.96973
thorax -11.0137 2.9853 -1.56209
lowerneck -10.5515 -7.97303 -5.8654
upperneck 18.3625 -11.454 7.8554
head 8.22798 -5.11317 2.34135
rclavicle -5.20692e-014 4.30866e-014
rhumerus 38.6061 46.859 -55.0318
rradius 85.8543
rwrist -59.101
rhand 2.41414 12.8211
rfingers 7.12502
rthumb 27.9006 -15.1264
lclavicle -5.20692e-014 4.30866e-014
lhumerus -18.6519 37.9602 44.3003
lradius 97.1614
lwrist 60.3668
lhand 0.370482 17.723
lfingers 7.12502
lthumb 25.9452 45.9723
rfemur -36.2335 -21.5824 17.0098
rtibia 70.926
rfoot -34.6004 -5.75522
rtoes 27.659
lfemur -4.39587 -8.01833 -0.702632
ltibia 42.8628
lfoot 1.48762 6.91243
ltoes -33.8088
2539
root -1.77627 14.4332 2.02127 -361.015 12.5025 369.054
lowerback 18.3889 5.48063 -6.13774
upperback -0.434625 5.6233 -2.95334
thorax -11.1083 2.89372 -1.36148
lowerneck -10.8075 -7.88461 -5.91702
upperneck 18.4511 -11.3041 7.77638
head 8.29069 -5.0445 2.33141
rclavicle -7.16184e-014 2.98177e-014
rhumerus 37.8232 46.415 -55.9216
rradius 86.4224
rwrist -59.0363
rhand 1.48909 12.5812
rfingers 7.12502
rthumb 27.0159 -15.5068
lclavicle -7.16184e-014 2.98177e-014
lhumerus -18.2176 38.2016 44.6763
lradius 97.7714
lwrist 60.1801
lhand 0.952571 18.3647
lfingers 7.12502
lthumb 26.5025 46.5311
rfemur -36.0663 -21.117 17.0036
rtibia 70.9007
rfoot -34.9387 -5.4318
rtoes 28.6994
lfemur -4.58184 -8.27676 -0.796975
ltibia 43.1765
lfoot 3.17629 6.79412
ltoes -33.702
2540
root -1.83108 14.4204 2.03865 -360.97 12.0918 369.309
lowerback 18.6998 5.49056 -6.15847
upperback -0.610849 5.57845 -3.10101
thorax -11.4701 2.86857 -1.54461
lowerneck -10.4247 -7.94518 -5.78317
upperneck 18.3185 -11.3986 7.68369
head 8.17028 -5.1033 2.28385
rclavicle -1.34428e-014 -3.48867e-014
rhumerus 36.1264 45.5724 -57.8177
rradius 86.6131
rwrist -58.9423
rhand 2.76944 12.8563
rfingers 7.12502
rthumb 28.2402 -15.0355
lclavicle -1.34428e-014 -3.48867e-014
lhumerus -17.6927 38.0146 45.0295
lradius 98.4786
lwrist 60.4444
lhand 1.22805 18.4816
lfingers 7.12502
lthumb 26.7661 46.608
rfemur -36.0904 -20.6266 17.1015
rtibia 70.8765
rfoot -35.037 -5.63357
rtoes 28.2977
lfemur -4.97272 -8.20863 -0.860879
ltibia 43.8383
lfoot 4.64263 6.50264
ltoes -32.8996
2541
root -1.89503 14.4324 2.06932 -360.988 11.8671 369.47
lowerback 18.6702 5.36117 -6.43877
upperback -0.569052 5.35835 -3.00885
thorax -11.4358 2.78415 -1.21775
lowerneck -10.5373 -7.9078 -5.87569
upperneck 18.4638 -11.3124 7.5588
head 8.23039 -5.07432 2.26247
rclavicle 4.88638e-014 -2.38542e-015
rhumerus 35.7002 45.1645 -58.261
rradius 87.241
rwrist -59.1947
rhand 2.55064 12.9146
rfingers 7.12502
rthumb 28.0311 -15.0116
lclavicle 4.88638e-014 -2.38542e-015
lhumerus -17.4034 38.0934 45.3253
lradius 99.2237
lwrist 60.4842
lhand 0.688904 18.1288
lfingers 7.12502
lthumb 26.2501 46.3331
rfemur -35.9458 -20.2417 17.1998
rtibia 70.7655
rfoot -35.3352 -5.55685
rtoes 29.4418
lfemur -5.22181 -8.4417 -0.863892
ltibia 44.274
lfoot 8.0851 7.25999
ltoes -29.2359
2542
root -1.96154 14.414 2.0878 -361.259 11.6878 369.298
lowerback 19.0768 5.22215 -6.37364
upperback -0.599161 5.15586 -2.93214
thorax -11.6944 2.68658 -1.14863
lowerneck -10.2818 -7.7645 -5.6764
upperneck 18.3097 -11.1395 7.51857
head 8.1057 -4.99425 2.24962
rclavicle 4.53415e-014 -2.56432e-014
rhumerus 34.3418 44.6234 -59.9404
rradius 87.5181
rwrist -58.3376
rhand 1.52285 13.1559
rfingers 7.12502
rthumb 27.0482 -14.927
lclavicle 4.53415e-014 -2.56432e-014
lhumerus -16.7008 38.2198 45.8438
lradius 99.714
lwrist 59.9328
lhand 1.09719 18.4115
lfingers 7.12502
lthumb 26.6409 46.557
rfemur -35.548 -19.8399 17.8208
rtibia 70.5973
rfoot -35.6469 -6.36235
rtoes 28.2743
lfemur -5.49468 -8.42014 -0.314753
ltibia 44.9844
lfoot 5.31258 6.68668
ltoes -26.6368
